<svg width="24" height="24" viewBox="0 0 24 24" fill="none" xmlns="http://www.w3.org/2000/svg">
<path d="M16.6444 10.3904C16.6444 9.18414 16.1452 8.02728 15.2567 7.17431C14.3682 6.32135 13.1632 5.84216 11.9066 5.84216C10.6501 5.84216 9.44503 6.32135 8.55653 7.17431C7.66802 8.02728 7.16887 9.18414 7.16887 10.3904C7.16887 15.6967 4.79999 17.2128 4.79999 17.2128H19.0133C19.0133 17.2128 16.6444 15.6967 16.6444 10.3904Z" stroke="#253F94" stroke-width="1.5" stroke-linecap="round" stroke-linejoin="round"/>
<path d="M13.2728 20.2446C13.1339 20.4744 12.9347 20.6651 12.6949 20.7976C12.4552 20.9302 12.1834 21 11.9067 21C11.63 21 11.3582 20.9302 11.1185 20.7976C10.8787 20.6651 10.6795 20.4744 10.5406 20.2446" stroke="#253F94" stroke-width="1.5" stroke-linecap="round" stroke-linejoin="round"/>
<circle cx="16.0002" cy="7" r="3.5" fill="#EB5757" stroke="white"/>
</svg>
