<svg width="33" height="32" viewBox="0 0 33 32" fill="none" xmlns="http://www.w3.org/2000/svg">
<path d="M13.7684 10.4286C13.7684 10.1919 13.9832 10 14.2483 10H18.0875C18.3526 10 18.5674 10.1919 18.5674 10.4286C18.5674 10.6653 18.3526 10.8571 18.0875 10.8571H14.2483C13.9832 10.8571 13.7684 10.6653 13.7684 10.4286ZM16.1679 13.4286C15.9029 13.4286 15.688 13.6204 15.688 13.8571V17.2857C15.688 17.5224 15.9029 17.7143 16.1679 17.7143C16.4329 17.7143 16.6478 17.5224 16.6478 17.2857V13.8571C16.6478 13.6204 16.4329 13.4286 16.1679 13.4286ZM21.9267 16.8571C21.9267 19.6975 19.3484 22 16.1679 22C12.9874 22 10.4091 19.6975 10.4091 16.8571C10.4091 14.0168 12.9874 11.7143 16.1679 11.7143C19.3484 11.7143 21.9267 14.0168 21.9267 16.8571ZM20.9669 16.8571C20.9669 14.4902 18.8183 12.5714 16.1679 12.5714C13.5175 12.5714 11.3689 14.4902 11.3689 16.8571C11.3689 19.2241 13.5175 21.1429 16.1679 21.1429C18.8183 21.1429 20.9669 19.2241 20.9669 16.8571ZM20.922 11.4073C20.7346 11.24 20.4307 11.24 20.2433 11.4073C20.0559 11.5747 20.0559 11.8461 20.2433 12.0134L21.5898 13.2159C21.7772 13.3833 22.0811 13.3833 22.2685 13.2159C22.4559 13.0485 22.4559 12.7772 22.2685 12.6098L20.922 11.4073Z" fill="#969FBC"/>
</svg>
