<svg width="22" height="30" viewBox="0 0 22 30" fill="none" xmlns="http://www.w3.org/2000/svg">
<path d="M11.1875 14.3754C10.9114 14.3754 10.6876 14.6553 10.6876 15.0005C10.6876 15.3457 10.9114 15.6255 11.1875 15.6255C11.4636 15.6255 11.6874 15.3457 11.6874 15.0005C11.6874 14.6553 11.4636 14.3754 11.1875 14.3754Z" stroke="#969FBC" stroke-width="1.5" stroke-linecap="round" stroke-linejoin="round"/>
<path d="M11.1875 18.75C10.9114 18.75 10.6876 19.0298 10.6876 19.375C10.6876 19.7202 10.9114 20 11.1875 20C11.4636 20 11.6874 19.7202 11.6874 19.375C11.6874 19.0298 11.4636 18.75 11.1875 18.75Z" stroke="#969FBC" stroke-width="1.5" stroke-linecap="round" stroke-linejoin="round"/>
<path d="M11.1876 9.99996C10.9115 9.99996 10.6877 10.2798 10.6877 10.625C10.6877 10.9702 10.9115 11.25 11.1876 11.25C11.4637 11.25 11.6875 10.9702 11.6875 10.625C11.6875 10.2798 11.4637 9.99996 11.1876 9.99996Z" stroke="#969FBC" stroke-width="1.5" stroke-linecap="round" stroke-linejoin="round"/>
</svg>
