<svg width="24" height="24" viewBox="0 0 24 24" fill="none" xmlns="http://www.w3.org/2000/svg">
<path d="M20.1018 3H14.1137V4.79652L17.9342 4.79631L13.2815 9.44897C13.1842 9.5465 13.0524 9.60122 12.9148 9.60122C12.7771 9.60122 12.6451 9.5465 12.5478 9.44897L10.9851 7.88619C10.5433 7.44511 9.94458 7.19741 9.32032 7.19741C8.69607 7.19741 8.09753 7.4451 7.65559 7.88619L3 12.5449L4.26936 13.8143L8.92811 9.15555C9.14573 8.93835 9.49804 8.93835 9.71564 9.15555L11.2784 10.7183V10.7185C11.7128 11.1517 12.3011 11.3948 12.9147 11.3948C13.5281 11.3948 14.1164 11.1517 14.5508 10.7185L19.2035 6.06588V9.88609H21V3.89805C21 3.65996 20.9054 3.43148 20.7369 3.26294C20.5685 3.09461 20.3401 3 20.1018 3Z" fill="white"/>
<path d="M3.9342 15.8744V18.2697C3.9342 18.8256 4.15495 19.3586 4.54798 19.7517C4.94103 20.1447 5.47399 20.3655 6.02996 20.3655H18.006C18.562 20.3655 19.095 20.1447 19.488 19.7517C19.8811 19.3586 20.1018 18.8257 20.1018 18.2697V11.6829H18.3055V18.2697C18.3055 18.3491 18.274 18.4253 18.2178 18.4815C18.1616 18.5377 18.0854 18.5692 18.006 18.5692H15.3115V14.0782H13.515V18.5692H10.521V12.8805H8.72445V18.5692H6.02994C5.86453 18.5692 5.73045 18.4351 5.73045 18.2697V15.8744L3.9342 15.8744Z" fill="white"/>
</svg>
