<svg width="24" height="24" viewBox="0 0 24 24" fill="none" xmlns="http://www.w3.org/2000/svg">
<path d="M3.00312 3.04579L4.89862 2.00022L7.03714 3.18174C7.1797 3.2604 7.3529 3.26018 7.49525 3.18151L9.63377 2L11.7723 3.18151C11.9148 3.26018 12.0881 3.26018 12.2306 3.18151L14.3691 2L16.5076 3.18151C16.6502 3.26018 16.8234 3.26018 16.966 3.18151L19.1045 2L21 3.04557V21.4694L19.3352 20.5501C19.1927 20.4714 19.0197 20.4714 18.8771 20.5501L16.7386 21.7316L14.5967 20.5501C14.4542 20.4714 14.2812 20.4714 14.1386 20.5501L12.0001 21.7316L9.86137 20.5501C9.71881 20.4714 9.54582 20.4714 9.40326 20.5501L7.26474 21.7316L5.1229 20.5501C4.98033 20.4714 4.80735 20.4714 4.66478 20.5501L3 21.4694L3.00312 3.04579Z" stroke="white" stroke-width="1.5" stroke-linecap="round" stroke-linejoin="round"/>
<path d="M18.4885 8H5.51465" stroke="white" stroke-width="1.5" stroke-linecap="round" stroke-linejoin="round"/>
<path d="M15.2093 12H5.51465" stroke="white" stroke-width="1.5" stroke-linecap="round" stroke-linejoin="round"/>
<path d="M11 16H6" stroke="white" stroke-width="1.5" stroke-linecap="round" stroke-linejoin="round"/>
</svg>
