<svg width="40" height="23" viewBox="0 0 40 23" fill="none" xmlns="http://www.w3.org/2000/svg">
<path d="M20.6553 21.2005H15.28L19.5891 15.8697C19.5891 15.8697 21.7658 17.691 21.8547 18.7128L20.522 20.4009L20.6553 21.2005Z" fill="white"/>
<path d="M11.8595 21.2004H8.08348L7.46155 19.7789C7.46155 19.7789 9.50502 18.7571 10.6156 17.9131C10.6156 17.9131 11.5485 18.5794 10.7489 19.8677C10.7489 19.9121 11.8595 21.2004 11.8595 21.2004Z" fill="white"/>
<path d="M35.004 11.2054C35.004 11.2054 34.4709 10.7612 34.0267 9.8283C33.9822 9.78388 34.5597 8.36233 34.4265 7.69598C34.2932 7.07405 35.3594 6.67424 35.3594 6.67424C35.3594 6.67424 35.5371 5.78577 35.1817 5.60808C35.1372 5.60808 34.3376 5.51923 33.8045 5.91905C33.8045 5.96347 33.4492 5.25269 31.6278 4.94173C31.6278 4.94173 31.7611 4.18653 32.4718 3.78672C33.0049 3.47576 32.5163 2.9871 32.2941 2.94268C32.072 2.89825 30.6505 2.14306 29.451 4.27538C29.451 4.27538 28.1183 4.14211 27.3187 3.34249C26.5191 2.54287 24.831 0.188427 23.676 0.0551573C22.5654 -0.0781129 21.4104 -0.0781131 20.3442 1.34344C19.2781 2.76498 17.0569 5.47481 17.0569 5.47481C17.0569 5.47481 18.2119 2.63171 19.6335 1.29901C19.6335 1.29901 17.0569 2.05421 15.4133 3.25364C13.7696 4.45307 12.8811 5.11942 11.9927 5.11942C11.1042 5.11942 9.94917 4.23096 9.28282 4.63077C8.61647 5.03058 3.01912 8.6733 2.53047 9.87273C2.04181 11.0722 1.642 13.782 1.10892 13.6043C0.575838 13.4266 0.575838 12.9379 0.353721 13.0712C0.131604 13.2045 -0.268206 13.6931 0.264875 14.0485C0.797955 14.3595 2.13066 14.1818 3.19682 11.6941C3.19682 11.6941 2.93028 15.0258 3.28567 15.8255C3.64105 16.6251 4.21856 16.936 3.59663 18.4909C3.01913 20.0457 2.53047 21.2451 2.53047 21.2451H7.28377L6.43973 19.8236C6.43973 19.8236 10.0824 18.1799 10.5711 17.4247C11.1042 16.7139 12.4369 13.6043 14.0806 13.2489C14.3915 13.1601 13.3698 13.8264 12.8811 14.4483C12.3925 15.0703 11.6817 17.1582 11.6817 17.1582C11.6817 17.1582 14.969 17.558 19.8112 15.3812C19.8112 15.3812 21.1439 16.6251 21.7214 17.4247C22.2989 18.2243 23.0097 21.1563 23.0097 21.1563H28.2516L28.3849 20.712C28.3849 20.712 28.0295 20.2234 27.1855 19.9124C26.3858 19.6015 25.5862 18.5353 25.5418 17.9134C25.4974 17.2914 25.5862 16.8028 25.986 16.2697C26.4303 15.7366 27.4964 14.0485 27.4964 12.1827C27.4964 12.1383 27.9407 13.8708 31.0503 15.1147C32.4274 15.6478 32.4718 15.8255 32.9161 16.2697C32.8716 16.2253 35.004 15.9143 36.0701 13.2933C36.0701 13.2489 38.6467 12.4937 39.7573 9.20638C39.8017 9.16195 36.5588 11.2499 35.004 11.2054ZM31.1836 11.2499C30.7393 10.9833 30.6061 9.73946 30.6061 9.73946C31.5834 10.8945 32.1609 10.9833 32.1609 10.9833C32.1609 10.9833 31.6278 11.5164 31.1836 11.2499Z" fill="white"/>
</svg>
