<svg width="16" height="16" viewBox="0 0 16 16" fill="none" xmlns="http://www.w3.org/2000/svg">
<path d="M7.99984 7.33366C7.63165 7.33366 7.33317 7.63214 7.33317 8.00033C7.33317 8.36852 7.63165 8.66699 7.99984 8.66699C8.36803 8.66699 8.6665 8.36852 8.6665 8.00033C8.6665 7.63214 8.36803 7.33366 7.99984 7.33366Z" stroke="#96A3BC" stroke-width="1.5" stroke-linecap="round" stroke-linejoin="round"/>
<path d="M7.99984 11.9997C7.63165 11.9997 7.33317 12.2982 7.33317 12.6663C7.33317 13.0345 7.63165 13.333 7.99984 13.333C8.36803 13.333 8.6665 13.0345 8.6665 12.6663C8.6665 12.2982 8.36803 11.9997 7.99984 11.9997Z" stroke="#96A3BC" stroke-width="1.5" stroke-linecap="round" stroke-linejoin="round"/>
<path d="M7.99996 2.66667C7.63177 2.66667 7.33329 2.96514 7.33329 3.33333C7.33329 3.70152 7.63177 4 7.99996 4C8.36815 4 8.66663 3.70152 8.66663 3.33333C8.66663 2.96514 8.36815 2.66667 7.99996 2.66667Z" stroke="#96A3BC" stroke-width="1.5" stroke-linecap="round" stroke-linejoin="round"/>
</svg>
