<svg width="14" height="14" viewBox="0 0 14 14" fill="none" xmlns="http://www.w3.org/2000/svg">
<path d="M4 0.5C4 0.223858 4.22386 0 4.5 0H8.5C8.77614 0 9 0.223858 9 0.5C9 0.776142 8.77614 1 8.5 1H4.5C4.22386 1 4 0.776142 4 0.5ZM6.5 4C6.22386 4 6 4.22386 6 4.5V8.5C6 8.77614 6.22386 9 6.5 9C6.77614 9 7 8.77614 7 8.5V4.5C7 4.22386 6.77614 4 6.5 4ZM12.5 8C12.5 11.3137 9.81371 14 6.5 14C3.18629 14 0.5 11.3137 0.5 8C0.5 4.68629 3.18629 2 6.5 2C9.81371 2 12.5 4.68629 12.5 8ZM11.5 8C11.5 5.23858 9.26142 3 6.5 3C3.73858 3 1.5 5.23858 1.5 8C1.5 10.7614 3.73858 13 6.5 13C9.26142 13 11.5 10.7614 11.5 8ZM11.4532 1.64188C11.2579 1.44662 10.9413 1.44662 10.7461 1.64188C10.5508 1.83715 10.5508 2.15373 10.7461 2.34899L12.149 3.75189C12.3442 3.94715 12.6608 3.94715 12.8561 3.75189C13.0513 3.55663 13.0513 3.24005 12.8561 3.04478L11.4532 1.64188Z" fill="#96A3BC"/>
</svg>
