<svg width="24" height="24" viewBox="0 0 24 24" fill="none" xmlns="http://www.w3.org/2000/svg">
<path d="M20.2934 15.5048C19.7207 16.8591 18.825 18.0526 17.6845 18.9808C16.544 19.909 15.1935 20.5437 13.7511 20.8293C12.3086 21.115 10.8182 21.043 9.40999 20.6196C8.00181 20.1962 6.71879 19.4343 5.6731 18.4005C4.62742 17.3666 3.85089 16.0924 3.41143 14.6892C2.97197 13.2859 2.88294 11.7964 3.15214 10.3508C3.42133 8.90515 4.04055 7.5475 4.95566 6.39649C5.87077 5.24548 7.0539 4.33617 8.40162 3.74805" stroke="white" stroke-width="1.5" stroke-linecap="round" stroke-linejoin="round"/>
<path d="M21.005 12.0021C21.005 10.8199 20.7722 9.64933 20.3198 8.55715C19.8674 7.46496 19.2043 6.47258 18.3684 5.63665C17.5325 4.80073 16.5401 4.13764 15.4479 3.68524C14.3557 3.23285 13.1851 3 12.0029 3V12.0021H21.005Z" stroke="white" stroke-width="1.5" stroke-linecap="round" stroke-linejoin="round"/>
</svg>
