<svg width="24" height="24" viewBox="0 0 24 24" fill="none" xmlns="http://www.w3.org/2000/svg">
<path d="M16.6445 10.3904C16.6445 9.18408 16.1453 8.02722 15.2568 7.17426C14.3683 6.32129 13.1632 5.84211 11.9067 5.84211C10.6502 5.84211 9.44509 6.32129 8.55659 7.17426C7.66808 8.02722 7.16893 9.18408 7.16893 10.3904C7.16893 15.6966 4.80005 17.2127 4.80005 17.2127H19.0133C19.0133 17.2127 16.6445 15.6966 16.6445 10.3904Z" stroke="#253F94" stroke-width="1.5" stroke-linecap="round" stroke-linejoin="round"/>
<path d="M13.2729 20.2445C13.1341 20.4743 12.9348 20.665 12.6951 20.7976C12.4553 20.9301 12.1835 20.9999 11.9068 20.9999C11.6302 20.9999 11.3583 20.9301 11.1186 20.7976C10.8789 20.665 10.6796 20.4743 10.5408 20.2445" stroke="#253F94" stroke-width="1.5" stroke-linecap="round" stroke-linejoin="round"/>
<circle cx="16.0002" cy="7" r="3.5" fill="#EB5757" stroke="white"/>
</svg>
